<?xml version="1.0" standalone="no"?>
<!DOCTYPE svg PUBLIC "-//W3C//DTD SVG 20010904//EN"
 "http://www.w3.org/TR/2001/REC-SVG-20010904/DTD/svg10.dtd">
<svg version="1.0" xmlns="http://www.w3.org/2000/svg"
 width="800.000000pt" height="800.000000pt" viewBox="0 0 800.000000 800.000000"
 preserveAspectRatio="xMidYMid meet">
<metadata>
Created by potrace 1.14, written by Peter Selinger 2001-2017
</metadata>
<g transform="translate(0.000000,800.000000) scale(0.100000,-0.100000)"
fill="#000000" stroke="none">
<path d="M6675 7964 c-8 -20 -15 -39 -15 -41 0 -5 -51 -149 -157 -443 -25 -69
-67 -186 -93 -260 -26 -74 -69 -193 -95 -265 -26 -71 -59 -166 -75 -210 -15
-44 -51 -145 -80 -225 -28 -80 -72 -201 -96 -270 -25 -69 -46 -129 -48 -135
-2 -5 -9 -23 -15 -40 -7 -16 -14 -37 -16 -45 -3 -13 -75 -215 -92 -260 -3 -8
-7 -19 -9 -25 -1 -5 -25 -72 -53 -148 -28 -75 -57 -156 -65 -180 -8 -23 -29
-80 -46 -127 -17 -47 -32 -89 -34 -95 -5 -22 -29 -92 -41 -120 -7 -16 -32 -84
-55 -150 -23 -66 -59 -167 -80 -225 -21 -58 -68 -190 -105 -295 -37 -104 -70
-199 -75 -210 -5 -11 -59 -162 -120 -335 -61 -173 -115 -324 -120 -335 -5 -11
-20 -54 -34 -95 -29 -84 -86 -244 -141 -395 -20 -55 -42 -118 -49 -140 -8 -22
-28 -78 -45 -125 -18 -47 -34 -92 -36 -100 -2 -8 -29 -85 -60 -170 -31 -85
-69 -191 -85 -235 -59 -169 -102 -291 -110 -310 -5 -11 -27 -74 -50 -140 -23
-66 -47 -133 -53 -150 -7 -16 -12 -32 -13 -35 0 -3 -6 -18 -13 -35 -7 -16 -14
-34 -15 -40 -2 -9 -47 -138 -101 -285 -63 -174 -100 -276 -102 -285 -1 -5 -16
-48 -33 -95 -17 -47 -47 -130 -66 -185 -19 -55 -38 -109 -43 -120 -11 -24
-150 -413 -156 -435 -2 -8 -15 -45 -28 -82 l-25 -68 89 0 c52 0 90 4 90 10 1
6 2 13 3 18 8 30 16 72 20 102 6 39 14 82 21 120 13 64 15 77 20 114 3 21 8
42 11 47 3 5 25 66 50 136 24 71 47 135 51 143 3 8 7 20 9 25 2 6 33 93 69
195 37 102 71 196 75 210 5 14 22 62 38 107 17 45 27 84 24 87 -3 3 12 6 34 6
38 1 205 0 234 -1 8 0 80 0 160 0 80 1 152 1 160 0 8 0 80 0 160 0 80 1 154 1
165 1 11 -1 84 0 163 0 128 1 142 3 142 19 0 9 5 22 11 28 6 6 12 17 13 24 1
8 9 30 18 49 8 19 27 64 42 100 15 36 36 83 46 105 19 42 14 59 -21 70 -17 6
-43 -12 -111 -77 -10 -10 -22 -18 -27 -18 -5 0 -11 -4 -13 -8 -6 -17 -129 -93
-205 -128 -139 -63 -168 -67 -561 -68 -195 0 -356 2 -358 6 -3 4 56 177 131
385 75 208 137 385 139 393 2 8 22 65 44 125 22 61 61 169 86 240 26 72 49
137 53 145 3 8 7 20 8 26 2 5 22 62 45 125 23 63 44 121 45 129 2 8 31 89 64
180 33 91 61 169 61 173 0 5 6 23 14 40 8 18 47 125 87 240 42 118 79 207 86
207 15 0 193 -92 220 -113 10 -9 56 -47 103 -85 47 -39 87 -67 90 -63 3 4 13
12 22 17 15 8 15 13 -4 59 -11 28 -27 66 -35 85 -8 19 -33 80 -56 135 l-43
100 -127 3 c-77 2 -127 7 -127 13 0 5 15 51 34 102 18 51 50 139 70 197 21 58
45 124 53 147 l16 43 113 0 c63 0 114 3 114 8 0 4 -7 34 -14 67 -8 33 -17 77
-20 97 -3 21 -10 56 -15 77 -5 22 -8 86 -7 143 2 87 7 116 33 188 33 89 59
163 246 690 64 179 130 363 147 410 17 47 33 90 34 95 2 6 6 17 9 25 3 8 36
98 72 200 36 102 70 194 75 205 10 23 100 272 142 395 16 47 33 94 39 105 5
11 24 63 43 115 87 246 98 269 226 505 15 28 46 85 69 128 l41 77 -95 0 -95 0
-15 -36z"/>
<path d="M2168 7155 c-2 -2 -28 -5 -58 -8 -263 -26 -478 -140 -671 -354 -61
-67 -201 -315 -213 -378 -2 -5 -12 -41 -24 -80 -21 -71 -47 -189 -58 -267 -11
-72 -13 -430 -3 -488 5 -30 11 -71 13 -90 11 -88 53 -246 90 -345 27 -70 124
-253 146 -275 3 -3 23 -27 44 -55 189 -241 478 -378 801 -379 467 -2 832 266
1008 739 29 79 67 220 74 280 2 21 6 42 8 45 10 16 20 176 20 310 -1 295 -46
515 -153 740 -24 52 -47 97 -51 100 -3 3 -28 37 -54 76 -26 40 -85 108 -131
152 -182 175 -418 269 -693 276 -51 2 -94 2 -95 1z m207 -108 c11 -3 34 -8 50
-12 89 -21 265 -99 265 -117 0 -4 6 -8 13 -8 17 0 119 -101 167 -164 75 -101
158 -294 189 -446 17 -84 19 -91 26 -155 4 -33 10 -69 12 -80 8 -35 10 -448 2
-520 -9 -82 -19 -178 -23 -220 -2 -16 -6 -45 -10 -63 -5 -19 -9 -43 -11 -55
-10 -88 -110 -344 -149 -383 -9 -8 -16 -19 -16 -22 0 -4 -21 -30 -47 -57 -101
-106 -215 -168 -374 -200 -102 -21 -322 -16 -409 10 -30 9 -62 17 -70 19 -77
19 -212 99 -291 173 -59 55 -144 180 -188 276 -17 38 -31 70 -31 72 0 2 -5 16
-11 32 -6 15 -11 30 -11 33 0 3 -5 16 -10 30 -5 14 -12 34 -14 45 -2 11 -8 43
-14 70 -17 84 -20 99 -25 135 -2 19 -8 60 -12 90 -16 113 -8 578 12 701 2 13
6 47 10 74 3 28 11 70 16 95 6 25 12 54 15 64 28 138 135 333 233 424 37 34
142 102 157 102 5 0 20 6 34 13 24 13 95 33 150 44 13 2 26 6 28 8 5 5 315 -2
337 -8z"/>
<path d="M3793 7096 c3 -11 10 -39 16 -61 5 -22 12 -56 16 -75 3 -19 9 -48 13
-65 4 -16 7 -509 7 -1095 l0 -1065 -28 -115 c-15 -63 -30 -123 -33 -132 -5
-16 3 -18 84 -18 l89 0 -1 1196 c-1 658 1 1198 3 1200 3 2 14 -11 25 -30 65
-109 82 -136 112 -183 19 -28 34 -56 34 -61 0 -6 3 -12 8 -14 4 -1 30 -41 58
-88 28 -47 124 -203 212 -348 89 -145 162 -268 162 -273 0 -5 4 -9 9 -9 5 0
13 -10 17 -22 3 -12 13 -28 20 -36 8 -7 14 -20 14 -28 0 -8 4 -14 9 -14 5 0
13 -10 17 -22 4 -13 10 -25 13 -28 4 -3 41 -61 83 -130 41 -69 113 -186 158
-260 177 -289 220 -361 220 -370 0 -4 4 -10 8 -12 5 -1 55 -81 113 -175 57
-95 107 -173 110 -173 3 0 10 15 16 33 6 17 31 90 57 161 l45 129 -107 176
c-59 97 -111 183 -117 193 -48 84 -111 184 -117 186 -4 2 -8 7 -8 12 0 4 -76
133 -170 285 -93 153 -170 279 -170 281 0 2 -12 22 -27 46 -16 24 -33 52 -40
63 -6 11 -56 92 -110 179 -54 88 -102 168 -108 177 -5 10 -39 64 -73 121 -147
239 -243 396 -269 439 l-27 47 -174 0 c-173 0 -174 0 -169 -22z"/>
<path d="M5599 7112 c-5 -21 -3 -1852 1 -1852 3 0 27 62 54 138 l49 137 0 640
c0 369 4 656 10 680 5 22 10 49 12 60 1 11 4 21 5 23 3 2 3 4 13 52 4 19 10
46 13 60 16 76 23 69 -71 69 -47 0 -86 -3 -86 -7z"/>
<path d="M1348 3932 c-96 -204 -146 -325 -142 -337 13 -32 42 -26 104 22 34
26 69 53 78 58 10 6 19 12 22 15 20 22 154 93 230 123 75 30 128 42 220 53 79
9 1038 12 1052 3 9 -6 -87 -159 -104 -167 -5 -2 -8 -10 -8 -18 0 -8 -3 -14 -8
-14 -4 0 -12 -9 -17 -20 -6 -11 -82 -127 -170 -257 -88 -130 -190 -282 -227
-337 -37 -56 -71 -106 -75 -111 -4 -6 -53 -78 -107 -160 -55 -83 -103 -151
-108 -153 -4 -2 -8 -8 -8 -12 0 -7 -49 -84 -87 -136 -5 -5 -12 -18 -18 -27 -5
-9 -85 -128 -177 -264 -435 -645 -565 -840 -571 -857 -6 -15 1 -17 71 -16 42
0 84 0 92 0 8 -1 62 -1 120 -1 58 1 112 1 120 0 8 0 170 0 360 0 190 0 352 0
360 0 8 0 62 0 120 0 58 1 114 1 125 1 11 -1 135 -1 276 0 l255 0 33 72 c19
40 45 98 60 128 14 30 26 57 26 60 1 3 11 27 23 54 28 61 28 64 -4 78 -21 10
-27 9 -35 -3 -5 -8 -9 -11 -9 -7 0 7 -10 0 -70 -53 -33 -29 -127 -89 -139 -89
-5 0 -11 -4 -13 -9 -9 -24 -236 -112 -328 -127 -44 -7 -1110 -12 -1110 -5 0 1
55 85 122 185 67 99 158 235 202 301 44 66 84 122 88 123 5 2 8 7 8 12 0 5 59
95 130 200 72 106 130 196 130 200 0 5 4 10 8 12 4 2 38 48 74 103 133 199
167 250 175 260 5 6 53 78 107 160 55 83 103 152 108 153 4 2 8 7 8 11 0 7
141 223 167 256 10 13 367 546 377 563 6 9 -186 12 -946 12 l-953 0 -17 -38z"/>
<path d="M3790 3948 c0 -13 4 -39 10 -58 5 -19 11 -46 14 -60 3 -14 12 -54 20
-90 11 -54 14 -240 14 -1097 l-1 -1031 -23 -104 c-13 -57 -26 -118 -29 -137
-3 -18 -8 -37 -11 -42 -3 -5 85 -9 203 -9 230 0 222 -2 237 66 l7 31 -48 -2
c-26 -1 -55 0 -64 2 -14 4 -16 118 -16 1228 0 1113 1 1224 16 1227 9 2 235 3
503 3 l487 0 10 25 c5 14 13 35 16 48 l6 22 -675 0 -676 0 0 -22z"/>
</g>
</svg>
