<svg id="Component_19_1" data-name="Component 19 – 1" xmlns="http://www.w3.org/2000/svg" width="143.904" height="200.142" viewBox="0 0 143.904 200.142">
  <path id="Path_33692" data-name="Path 33692" d="M2981.455,134.816a24.974,24.974,0,0,0-8.788-6.815,28.21,28.21,0,0,0-22.68,0,24.942,24.942,0,0,0-8.788,6.815,31.8,31.8,0,0,0-5.635,10.659,45.88,45.88,0,0,0-1.984,13.918,46.8,46.8,0,0,0,1.983,14.006,32.715,32.715,0,0,0,5.632,10.841,25.439,25.439,0,0,0,8.782,7,27.25,27.25,0,0,0,22.7,0,25.467,25.467,0,0,0,8.781-7,32.716,32.716,0,0,0,5.632-10.841,46.762,46.762,0,0,0,1.983-14.006,45.87,45.87,0,0,0-1.984-13.918,31.8,31.8,0,0,0-5.635-10.659m1.63,24.577a81.378,81.378,0,0,1-1.025,13.52h0a30.122,30.122,0,0,1-3.4,10.059,16.257,16.257,0,0,1-6.26,6.207,20.141,20.141,0,0,1-9.778,2.165,22.5,22.5,0,0,1-10.193-2.179,18.978,18.978,0,0,1-7.133-6.249,29.938,29.938,0,0,1-4.282-10.06,57.777,57.777,0,0,1-1.445-13.464,79.712,79.712,0,0,1,1.025-13.425,29.028,29.028,0,0,1,3.4-9.87,15.777,15.777,0,0,1,6.251-6.023,20.893,20.893,0,0,1,9.791-2.08,23.356,23.356,0,0,1,10.2,2.093,18.506,18.506,0,0,1,7.127,6.065,28.982,28.982,0,0,1,4.278,9.872,56.66,56.66,0,0,1,1.444,13.368" transform="translate(-2933.58 -104.499)" fill="#e83b8c"/>
  <path id="Path_33693" data-name="Path 33693" d="M2991.613,513.025q-.713.555-2.336,1.851a29.126,29.126,0,0,1-3.791,2.511,31.051,31.051,0,0,1-5.028,2.247,17.548,17.548,0,0,1-5.846.967h-25.141l42.168-62.635.764-1.242h-47.7L2940.5,466l1.16.868.246-.193q.709-.554,2.335-1.851a29.28,29.28,0,0,1,3.789-2.511,31.34,31.34,0,0,1,5.028-2.247,30.246,30.246,0,0,1,7.726-.969h23.066l-42.968,63.878h47.931l4.2-9.275-1.159-.868Z" transform="translate(-2938.836 -355.887)" fill="#e83b8c"/>
  <path id="Path_33694" data-name="Path 33694" d="M3213.575,195.7l0-60.3,35.152,57.536,2.958-8.3-33.7-55.181h-8.635l.263,1.017c.08.3.2.788.354,1.46.151.634.284,1.311.407,2.067s.242,1.431.362,2.056c.154.787.164.957.164.957l.018,1.3V188.02l-1.75,7.684Z" transform="translate(-3142.822 -107.409)" fill="#e83b8c"/>
  <path id="Path_33695" data-name="Path 33695" d="M3397.7,137.011v39.482l2.658-7.462V137.057l1.731-7.6h-4.432v7.228l.005.065c.028.175.036.246.037.263" transform="translate(-3285.928 -107.409)" fill="#e83b8c"/>
  <path id="Path_33696" data-name="Path 33696" d="M3396.261,364.146v0c-.15-.634-.283-1.311-.406-2.067s-.242-1.431-.362-2.056c-.154-.786-.164-.957-.164-.957v-4.5l-4.295,12.054h5.844l-.264-1.017c-.08-.3-.2-.788-.353-1.458" transform="translate(-3280.9 -278.325)" fill="#e83b8c"/>
  <path id="Path_33697" data-name="Path 33697" d="M3214.529,237.98l4.452.045,1.731-9.719L3272.9,81.647,3284.665,49.3l6.129-11.415h-4.778Z" transform="translate(-3146.891 -37.883)" fill="#e83b8c"/>
  <path id="Path_33698" data-name="Path 33698" d="M3219.973,522.976l.846-2.374h-3.312V459.1h24.8c.139,0,.273.014.411.018l.853-2.391h-34.009l1.59,7.458c.006.057.008.087.008.1v51.135l0,.017-1.6,7.543Z" transform="translate(-3143.119 -355.887)" fill="#e83b8c"/>
  <path id="Path_33699" data-name="Path 33699" d="M3307.008,689.994q-.649.556-2.129,1.852a26.583,26.583,0,0,1-3.449,2.506,27.028,27.028,0,0,1-4.569,2.239,14.59,14.59,0,0,1-5.289.961h-16.286l-.845,2.374h30.139l3.84-9.3-1.166-.846Z" transform="translate(-3192.377 -532.839)" fill="#e83b8c"/>
  <path id="Path_33700" data-name="Path 33700" d="M3368.732,456.725l-1.187,3.332.007,0a27.239,27.239,0,0,1,4.568,2.239,26.805,26.805,0,0,1,3.449,2.505q1.481,1.3,2.131,1.853l.245.209,1.165-.846-3.84-9.295Z" transform="translate(-3263.066 -355.887)" fill="#e83b8c"/>
</svg>
